<svg xmlns="http://www.w3.org/2000/svg" width="720" height="640" viewBox="0 0 720 640" role="img" aria-labelledby="title desc">
  <title id="title">GitHub build signal for shivam2003-dev</title>
  <desc id="desc">1,676 GitHub contributions, 1,192 commit contributions, 109 pull requests, and 30 issues in the last twelve months.</desc>
  <defs>
    <pattern id="grid" width="28" height="28" patternUnits="userSpaceOnUse"><path d="M28 0H0V28" fill="none" class="grid-line" /></pattern>
    <clipPath id="frame"><rect width="720" height="640" rx="30" /></clipPath>
    <style>
  text { font-family: Arial, Helvetica, sans-serif; }
  .mono { font-family: "SFMono-Regular", Consolas, "Liberation Mono", monospace; }
  .bg { fill: #080A0C; }
  .panel { fill: #101316; }
  .ink { fill: #F3F0E8; }
  .muted { fill: #89939D; }
  .faint { stroke: #30363C; }
  .grid-line { stroke: #1A2025; }
  .signal { fill: #B8F34A; }
  .signal-stroke { stroke: #B8F34A; }
  .level-0 { fill: #1A2025; }
  .level-1 { fill: #314520; }
  .level-2 { fill: #577C28; }
  .level-3 { fill: #82B535; }
  .level-4 { fill: #B8F34A; }
  .scan { animation: scan 9s ease-in-out infinite; }
  .latest { animation: latest 2.6s ease-in-out infinite; transform-box: fill-box; transform-origin: center; }
  @keyframes scan { 0%, 8% { transform: translateX(-34px); opacity: 0; } 16% { opacity: .5; } 76% { opacity: .16; } 86%, 100% { transform: translateX(var(--scan-distance)); opacity: 0; } }
  @keyframes latest { 50% { opacity: .58; transform: scale(.78); } }
  @media (prefers-color-scheme: light) {
    .bg { fill: #F3F0E8; }
    .panel { fill: #E8E3D8; }
    .ink { fill: #111315; }
    .muted { fill: #5F6870; }
    .faint { stroke: #C8C0B1; }
    .grid-line { stroke: #DDD7CB; }
    .signal { fill: #456600; }
    .signal-stroke { stroke: #456600; }
    .level-0 { fill: #DDD7CB; }
    .level-1 { fill: #CDE6A9; }
    .level-2 { fill: #94BE58; }
    .level-3 { fill: #668D24; }
    .level-4 { fill: #456600; }
  }
  @media (prefers-reduced-motion: reduce) { .scan, .latest { animation: none !important; } }

      .month { font-size: 8px; letter-spacing: .5px; }
      .scan { --scan-distance: 656px; }
    </style>
  </defs>
  <rect width="720" height="640" rx="30" class="bg" />
  <g clip-path="url(#frame)"><rect width="720" height="640" fill="url(#grid)" opacity=".42" /></g>
  <text x="40" y="42" class="muted mono" font-size="14" font-weight="700" letter-spacing="1.6">FIELD MANUAL 04 / BUILD SIGNAL</text>
  <circle cx="660" cy="38" r="5" class="signal" />
  <line x1="40" y1="64" x2="680" y2="64" class="faint" />
  <g transform="translate(40 84)">
      <rect width="310" height="112" rx="18" class="panel" stroke="#30363C" />
      <text x="18" y="48" class="ink" font-size="35" font-weight="700" letter-spacing="-1">1,676</text>
      <text x="18" y="76" class="signal mono" font-size="13" font-weight="700" letter-spacing=".8">GITHUB ACTIVITY</text>
      <text x="18" y="97" class="muted mono" font-size="11">LAST 12 MONTHS</text>
    </g>
<g transform="translate(366 84)">
      <rect width="310" height="112" rx="18" class="panel" stroke="#30363C" />
      <text x="18" y="48" class="ink" font-size="35" font-weight="700" letter-spacing="-1">1,192</text>
      <text x="18" y="76" class="signal mono" font-size="13" font-weight="700" letter-spacing=".8">COMMIT CONTRIBUTIONS</text>
      <text x="18" y="97" class="muted mono" font-size="11">LAST 12 MONTHS</text>
    </g>
<g transform="translate(40 214)">
      <rect width="310" height="112" rx="18" class="panel" stroke="#30363C" />
      <text x="18" y="48" class="ink" font-size="35" font-weight="700" letter-spacing="-1">109</text>
      <text x="18" y="76" class="signal mono" font-size="13" font-weight="700" letter-spacing=".8">PULL REQUESTS</text>
      <text x="18" y="97" class="muted mono" font-size="11">LAST 12 MONTHS</text>
    </g>
<g transform="translate(366 214)">
      <rect width="310" height="112" rx="18" class="panel" stroke="#30363C" />
      <text x="18" y="48" class="ink" font-size="35" font-weight="700" letter-spacing="-1">30</text>
      <text x="18" y="76" class="signal mono" font-size="13" font-weight="700" letter-spacing=".8">ISSUES</text>
      <text x="18" y="97" class="muted mono" font-size="11">LAST 12 MONTHS</text>
    </g>
  <text x="40" y="365" class="ink mono" font-size="15" font-weight="700" letter-spacing="1.2">CONTRIBUTION MAP / 12 MONTHS</text>
  <text x="680" y="391" text-anchor="end" class="muted mono" font-size="11">13 JUL 2025 — 18 JUL 2026</text>
  <g transform="translate(0 412)"><text x="64" class="muted mono month">AUG</text>
<text x="124" class="muted mono month">SEPT</text>
<text x="172" class="muted mono month">OCT</text>
<text x="220" class="muted mono month">NOV</text>
<text x="280" class="muted mono month">DEC</text>
<text x="328" class="muted mono month">JAN</text>
<text x="388" class="muted mono month">FEB</text>
<text x="436" class="muted mono month">MAR</text>
<text x="484" class="muted mono month">APR</text>
<text x="532" class="muted mono month">MAY</text>
<text x="592" class="muted mono month">JUN</text>
<text x="640" class="muted mono month">JUL</text></g>
  <rect x="40" y="430" width="9" height="9" rx="2" class="level-0"><title>2025-07-13: 0 contributions</title></rect>
<rect x="40" y="442" width="9" height="9" rx="2" class="level-0"><title>2025-07-14: 0 contributions</title></rect>
<rect x="40" y="454" width="9" height="9" rx="2" class="level-0"><title>2025-07-15: 0 contributions</title></rect>
<rect x="40" y="466" width="9" height="9" rx="2" class="level-0"><title>2025-07-16: 0 contributions</title></rect>
<rect x="40" y="478" width="9" height="9" rx="2" class="level-1"><title>2025-07-17: 4 contributions</title></rect>
<rect x="40" y="490" width="9" height="9" rx="2" class="level-2"><title>2025-07-18: 8 contributions</title></rect>
<rect x="40" y="502" width="9" height="9" rx="2" class="level-0"><title>2025-07-19: 0 contributions</title></rect>
<rect x="52" y="430" width="9" height="9" rx="2" class="level-0"><title>2025-07-20: 0 contributions</title></rect>
<rect x="52" y="442" width="9" height="9" rx="2" class="level-0"><title>2025-07-21: 0 contributions</title></rect>
<rect x="52" y="454" width="9" height="9" rx="2" class="level-0"><title>2025-07-22: 0 contributions</title></rect>
<rect x="52" y="466" width="9" height="9" rx="2" class="level-0"><title>2025-07-23: 0 contributions</title></rect>
<rect x="52" y="478" width="9" height="9" rx="2" class="level-0"><title>2025-07-24: 0 contributions</title></rect>
<rect x="52" y="490" width="9" height="9" rx="2" class="level-1"><title>2025-07-25: 1 contributions</title></rect>
<rect x="52" y="502" width="9" height="9" rx="2" class="level-0"><title>2025-07-26: 0 contributions</title></rect>
<rect x="64" y="430" width="9" height="9" rx="2" class="level-3"><title>2025-07-27: 17 contributions</title></rect>
<rect x="64" y="442" width="9" height="9" rx="2" class="level-0"><title>2025-07-28: 0 contributions</title></rect>
<rect x="64" y="454" width="9" height="9" rx="2" class="level-0"><title>2025-07-29: 0 contributions</title></rect>
<rect x="64" y="466" width="9" height="9" rx="2" class="level-0"><title>2025-07-30: 0 contributions</title></rect>
<rect x="64" y="478" width="9" height="9" rx="2" class="level-0"><title>2025-07-31: 0 contributions</title></rect>
<rect x="64" y="490" width="9" height="9" rx="2" class="level-0"><title>2025-08-01: 0 contributions</title></rect>
<rect x="64" y="502" width="9" height="9" rx="2" class="level-0"><title>2025-08-02: 0 contributions</title></rect>
<rect x="76" y="430" width="9" height="9" rx="2" class="level-0"><title>2025-08-03: 0 contributions</title></rect>
<rect x="76" y="442" width="9" height="9" rx="2" class="level-0"><title>2025-08-04: 0 contributions</title></rect>
<rect x="76" y="454" width="9" height="9" rx="2" class="level-0"><title>2025-08-05: 0 contributions</title></rect>
<rect x="76" y="466" width="9" height="9" rx="2" class="level-0"><title>2025-08-06: 0 contributions</title></rect>
<rect x="76" y="478" width="9" height="9" rx="2" class="level-0"><title>2025-08-07: 0 contributions</title></rect>
<rect x="76" y="490" width="9" height="9" rx="2" class="level-0"><title>2025-08-08: 0 contributions</title></rect>
<rect x="76" y="502" width="9" height="9" rx="2" class="level-1"><title>2025-08-09: 1 contributions</title></rect>
<rect x="88" y="430" width="9" height="9" rx="2" class="level-0"><title>2025-08-10: 0 contributions</title></rect>
<rect x="88" y="442" width="9" height="9" rx="2" class="level-1"><title>2025-08-11: 4 contributions</title></rect>
<rect x="88" y="454" width="9" height="9" rx="2" class="level-0"><title>2025-08-12: 0 contributions</title></rect>
<rect x="88" y="466" width="9" height="9" rx="2" class="level-0"><title>2025-08-13: 0 contributions</title></rect>
<rect x="88" y="478" width="9" height="9" rx="2" class="level-2"><title>2025-08-14: 5 contributions</title></rect>
<rect x="88" y="490" width="9" height="9" rx="2" class="level-0"><title>2025-08-15: 0 contributions</title></rect>
<rect x="88" y="502" width="9" height="9" rx="2" class="level-0"><title>2025-08-16: 0 contributions</title></rect>
<rect x="100" y="430" width="9" height="9" rx="2" class="level-0"><title>2025-08-17: 0 contributions</title></rect>
<rect x="100" y="442" width="9" height="9" rx="2" class="level-0"><title>2025-08-18: 0 contributions</title></rect>
<rect x="100" y="454" width="9" height="9" rx="2" class="level-0"><title>2025-08-19: 0 contributions</title></rect>
<rect x="100" y="466" width="9" height="9" rx="2" class="level-0"><title>2025-08-20: 0 contributions</title></rect>
<rect x="100" y="478" width="9" height="9" rx="2" class="level-0"><title>2025-08-21: 0 contributions</title></rect>
<rect x="100" y="490" width="9" height="9" rx="2" class="level-1"><title>2025-08-22: 1 contributions</title></rect>
<rect x="100" y="502" width="9" height="9" rx="2" class="level-0"><title>2025-08-23: 0 contributions</title></rect>
<rect x="112" y="430" width="9" height="9" rx="2" class="level-0"><title>2025-08-24: 0 contributions</title></rect>
<rect x="112" y="442" width="9" height="9" rx="2" class="level-0"><title>2025-08-25: 0 contributions</title></rect>
<rect x="112" y="454" width="9" height="9" rx="2" class="level-1"><title>2025-08-26: 3 contributions</title></rect>
<rect x="112" y="466" width="9" height="9" rx="2" class="level-0"><title>2025-08-27: 0 contributions</title></rect>
<rect x="112" y="478" width="9" height="9" rx="2" class="level-0"><title>2025-08-28: 0 contributions</title></rect>
<rect x="112" y="490" width="9" height="9" rx="2" class="level-0"><title>2025-08-29: 0 contributions</title></rect>
<rect x="112" y="502" width="9" height="9" rx="2" class="level-0"><title>2025-08-30: 0 contributions</title></rect>
<rect x="124" y="430" width="9" height="9" rx="2" class="level-0"><title>2025-08-31: 0 contributions</title></rect>
<rect x="124" y="442" width="9" height="9" rx="2" class="level-0"><title>2025-09-01: 0 contributions</title></rect>
<rect x="124" y="454" width="9" height="9" rx="2" class="level-2"><title>2025-09-02: 7 contributions</title></rect>
<rect x="124" y="466" width="9" height="9" rx="2" class="level-0"><title>2025-09-03: 0 contributions</title></rect>
<rect x="124" y="478" width="9" height="9" rx="2" class="level-0"><title>2025-09-04: 0 contributions</title></rect>
<rect x="124" y="490" width="9" height="9" rx="2" class="level-0"><title>2025-09-05: 0 contributions</title></rect>
<rect x="124" y="502" width="9" height="9" rx="2" class="level-0"><title>2025-09-06: 0 contributions</title></rect>
<rect x="136" y="430" width="9" height="9" rx="2" class="level-0"><title>2025-09-07: 0 contributions</title></rect>
<rect x="136" y="442" width="9" height="9" rx="2" class="level-0"><title>2025-09-08: 0 contributions</title></rect>
<rect x="136" y="454" width="9" height="9" rx="2" class="level-0"><title>2025-09-09: 0 contributions</title></rect>
<rect x="136" y="466" width="9" height="9" rx="2" class="level-0"><title>2025-09-10: 0 contributions</title></rect>
<rect x="136" y="478" width="9" height="9" rx="2" class="level-0"><title>2025-09-11: 0 contributions</title></rect>
<rect x="136" y="490" width="9" height="9" rx="2" class="level-0"><title>2025-09-12: 0 contributions</title></rect>
<rect x="136" y="502" width="9" height="9" rx="2" class="level-0"><title>2025-09-13: 0 contributions</title></rect>
<rect x="148" y="430" width="9" height="9" rx="2" class="level-0"><title>2025-09-14: 0 contributions</title></rect>
<rect x="148" y="442" width="9" height="9" rx="2" class="level-0"><title>2025-09-15: 0 contributions</title></rect>
<rect x="148" y="454" width="9" height="9" rx="2" class="level-0"><title>2025-09-16: 0 contributions</title></rect>
<rect x="148" y="466" width="9" height="9" rx="2" class="level-0"><title>2025-09-17: 0 contributions</title></rect>
<rect x="148" y="478" width="9" height="9" rx="2" class="level-0"><title>2025-09-18: 0 contributions</title></rect>
<rect x="148" y="490" width="9" height="9" rx="2" class="level-0"><title>2025-09-19: 0 contributions</title></rect>
<rect x="148" y="502" width="9" height="9" rx="2" class="level-0"><title>2025-09-20: 0 contributions</title></rect>
<rect x="160" y="430" width="9" height="9" rx="2" class="level-0"><title>2025-09-21: 0 contributions</title></rect>
<rect x="160" y="442" width="9" height="9" rx="2" class="level-0"><title>2025-09-22: 0 contributions</title></rect>
<rect x="160" y="454" width="9" height="9" rx="2" class="level-0"><title>2025-09-23: 0 contributions</title></rect>
<rect x="160" y="466" width="9" height="9" rx="2" class="level-0"><title>2025-09-24: 0 contributions</title></rect>
<rect x="160" y="478" width="9" height="9" rx="2" class="level-0"><title>2025-09-25: 0 contributions</title></rect>
<rect x="160" y="490" width="9" height="9" rx="2" class="level-0"><title>2025-09-26: 0 contributions</title></rect>
<rect x="160" y="502" width="9" height="9" rx="2" class="level-0"><title>2025-09-27: 0 contributions</title></rect>
<rect x="172" y="430" width="9" height="9" rx="2" class="level-0"><title>2025-09-28: 0 contributions</title></rect>
<rect x="172" y="442" width="9" height="9" rx="2" class="level-0"><title>2025-09-29: 0 contributions</title></rect>
<rect x="172" y="454" width="9" height="9" rx="2" class="level-0"><title>2025-09-30: 0 contributions</title></rect>
<rect x="172" y="466" width="9" height="9" rx="2" class="level-0"><title>2025-10-01: 0 contributions</title></rect>
<rect x="172" y="478" width="9" height="9" rx="2" class="level-0"><title>2025-10-02: 0 contributions</title></rect>
<rect x="172" y="490" width="9" height="9" rx="2" class="level-0"><title>2025-10-03: 0 contributions</title></rect>
<rect x="172" y="502" width="9" height="9" rx="2" class="level-0"><title>2025-10-04: 0 contributions</title></rect>
<rect x="184" y="430" width="9" height="9" rx="2" class="level-0"><title>2025-10-05: 0 contributions</title></rect>
<rect x="184" y="442" width="9" height="9" rx="2" class="level-1"><title>2025-10-06: 2 contributions</title></rect>
<rect x="184" y="454" width="9" height="9" rx="2" class="level-0"><title>2025-10-07: 0 contributions</title></rect>
<rect x="184" y="466" width="9" height="9" rx="2" class="level-2"><title>2025-10-08: 9 contributions</title></rect>
<rect x="184" y="478" width="9" height="9" rx="2" class="level-0"><title>2025-10-09: 0 contributions</title></rect>
<rect x="184" y="490" width="9" height="9" rx="2" class="level-0"><title>2025-10-10: 0 contributions</title></rect>
<rect x="184" y="502" width="9" height="9" rx="2" class="level-0"><title>2025-10-11: 0 contributions</title></rect>
<rect x="196" y="430" width="9" height="9" rx="2" class="level-0"><title>2025-10-12: 0 contributions</title></rect>
<rect x="196" y="442" width="9" height="9" rx="2" class="level-0"><title>2025-10-13: 0 contributions</title></rect>
<rect x="196" y="454" width="9" height="9" rx="2" class="level-2"><title>2025-10-14: 8 contributions</title></rect>
<rect x="196" y="466" width="9" height="9" rx="2" class="level-1"><title>2025-10-15: 1 contributions</title></rect>
<rect x="196" y="478" width="9" height="9" rx="2" class="level-0"><title>2025-10-16: 0 contributions</title></rect>
<rect x="196" y="490" width="9" height="9" rx="2" class="level-0"><title>2025-10-17: 0 contributions</title></rect>
<rect x="196" y="502" width="9" height="9" rx="2" class="level-0"><title>2025-10-18: 0 contributions</title></rect>
<rect x="208" y="430" width="9" height="9" rx="2" class="level-1"><title>2025-10-19: 4 contributions</title></rect>
<rect x="208" y="442" width="9" height="9" rx="2" class="level-3"><title>2025-10-20: 20 contributions</title></rect>
<rect x="208" y="454" width="9" height="9" rx="2" class="level-0"><title>2025-10-21: 0 contributions</title></rect>
<rect x="208" y="466" width="9" height="9" rx="2" class="level-1"><title>2025-10-22: 3 contributions</title></rect>
<rect x="208" y="478" width="9" height="9" rx="2" class="level-1"><title>2025-10-23: 2 contributions</title></rect>
<rect x="208" y="490" width="9" height="9" rx="2" class="level-3"><title>2025-10-24: 19 contributions</title></rect>
<rect x="208" y="502" width="9" height="9" rx="2" class="level-1"><title>2025-10-25: 4 contributions</title></rect>
<rect x="220" y="430" width="9" height="9" rx="2" class="level-1"><title>2025-10-26: 4 contributions</title></rect>
<rect x="220" y="442" width="9" height="9" rx="2" class="level-0"><title>2025-10-27: 0 contributions</title></rect>
<rect x="220" y="454" width="9" height="9" rx="2" class="level-0"><title>2025-10-28: 0 contributions</title></rect>
<rect x="220" y="466" width="9" height="9" rx="2" class="level-0"><title>2025-10-29: 0 contributions</title></rect>
<rect x="220" y="478" width="9" height="9" rx="2" class="level-0"><title>2025-10-30: 0 contributions</title></rect>
<rect x="220" y="490" width="9" height="9" rx="2" class="level-0"><title>2025-10-31: 0 contributions</title></rect>
<rect x="220" y="502" width="9" height="9" rx="2" class="level-2"><title>2025-11-01: 5 contributions</title></rect>
<rect x="232" y="430" width="9" height="9" rx="2" class="level-3"><title>2025-11-02: 21 contributions</title></rect>
<rect x="232" y="442" width="9" height="9" rx="2" class="level-1"><title>2025-11-03: 4 contributions</title></rect>
<rect x="232" y="454" width="9" height="9" rx="2" class="level-0"><title>2025-11-04: 0 contributions</title></rect>
<rect x="232" y="466" width="9" height="9" rx="2" class="level-0"><title>2025-11-05: 0 contributions</title></rect>
<rect x="232" y="478" width="9" height="9" rx="2" class="level-1"><title>2025-11-06: 2 contributions</title></rect>
<rect x="232" y="490" width="9" height="9" rx="2" class="level-2"><title>2025-11-07: 5 contributions</title></rect>
<rect x="232" y="502" width="9" height="9" rx="2" class="level-1"><title>2025-11-08: 4 contributions</title></rect>
<rect x="244" y="430" width="9" height="9" rx="2" class="level-3"><title>2025-11-09: 19 contributions</title></rect>
<rect x="244" y="442" width="9" height="9" rx="2" class="level-0"><title>2025-11-10: 0 contributions</title></rect>
<rect x="244" y="454" width="9" height="9" rx="2" class="level-0"><title>2025-11-11: 0 contributions</title></rect>
<rect x="244" y="466" width="9" height="9" rx="2" class="level-3"><title>2025-11-12: 15 contributions</title></rect>
<rect x="244" y="478" width="9" height="9" rx="2" class="level-1"><title>2025-11-13: 1 contributions</title></rect>
<rect x="244" y="490" width="9" height="9" rx="2" class="level-1"><title>2025-11-14: 1 contributions</title></rect>
<rect x="244" y="502" width="9" height="9" rx="2" class="level-1"><title>2025-11-15: 3 contributions</title></rect>
<rect x="256" y="430" width="9" height="9" rx="2" class="level-2"><title>2025-11-16: 7 contributions</title></rect>
<rect x="256" y="442" width="9" height="9" rx="2" class="level-0"><title>2025-11-17: 0 contributions</title></rect>
<rect x="256" y="454" width="9" height="9" rx="2" class="level-1"><title>2025-11-18: 4 contributions</title></rect>
<rect x="256" y="466" width="9" height="9" rx="2" class="level-0"><title>2025-11-19: 0 contributions</title></rect>
<rect x="256" y="478" width="9" height="9" rx="2" class="level-1"><title>2025-11-20: 1 contributions</title></rect>
<rect x="256" y="490" width="9" height="9" rx="2" class="level-4"><title>2025-11-21: 68 contributions</title></rect>
<rect x="256" y="502" width="9" height="9" rx="2" class="level-3"><title>2025-11-22: 16 contributions</title></rect>
<rect x="268" y="430" width="9" height="9" rx="2" class="level-0"><title>2025-11-23: 0 contributions</title></rect>
<rect x="268" y="442" width="9" height="9" rx="2" class="level-1"><title>2025-11-24: 4 contributions</title></rect>
<rect x="268" y="454" width="9" height="9" rx="2" class="level-0"><title>2025-11-25: 0 contributions</title></rect>
<rect x="268" y="466" width="9" height="9" rx="2" class="level-0"><title>2025-11-26: 0 contributions</title></rect>
<rect x="268" y="478" width="9" height="9" rx="2" class="level-0"><title>2025-11-27: 0 contributions</title></rect>
<rect x="268" y="490" width="9" height="9" rx="2" class="level-1"><title>2025-11-28: 1 contributions</title></rect>
<rect x="268" y="502" width="9" height="9" rx="2" class="level-1"><title>2025-11-29: 1 contributions</title></rect>
<rect x="280" y="430" width="9" height="9" rx="2" class="level-0"><title>2025-11-30: 0 contributions</title></rect>
<rect x="280" y="442" width="9" height="9" rx="2" class="level-0"><title>2025-12-01: 0 contributions</title></rect>
<rect x="280" y="454" width="9" height="9" rx="2" class="level-1"><title>2025-12-02: 1 contributions</title></rect>
<rect x="280" y="466" width="9" height="9" rx="2" class="level-0"><title>2025-12-03: 0 contributions</title></rect>
<rect x="280" y="478" width="9" height="9" rx="2" class="level-1"><title>2025-12-04: 2 contributions</title></rect>
<rect x="280" y="490" width="9" height="9" rx="2" class="level-0"><title>2025-12-05: 0 contributions</title></rect>
<rect x="280" y="502" width="9" height="9" rx="2" class="level-0"><title>2025-12-06: 0 contributions</title></rect>
<rect x="292" y="430" width="9" height="9" rx="2" class="level-0"><title>2025-12-07: 0 contributions</title></rect>
<rect x="292" y="442" width="9" height="9" rx="2" class="level-0"><title>2025-12-08: 0 contributions</title></rect>
<rect x="292" y="454" width="9" height="9" rx="2" class="level-1"><title>2025-12-09: 3 contributions</title></rect>
<rect x="292" y="466" width="9" height="9" rx="2" class="level-0"><title>2025-12-10: 0 contributions</title></rect>
<rect x="292" y="478" width="9" height="9" rx="2" class="level-0"><title>2025-12-11: 0 contributions</title></rect>
<rect x="292" y="490" width="9" height="9" rx="2" class="level-0"><title>2025-12-12: 0 contributions</title></rect>
<rect x="292" y="502" width="9" height="9" rx="2" class="level-0"><title>2025-12-13: 0 contributions</title></rect>
<rect x="304" y="430" width="9" height="9" rx="2" class="level-0"><title>2025-12-14: 0 contributions</title></rect>
<rect x="304" y="442" width="9" height="9" rx="2" class="level-1"><title>2025-12-15: 4 contributions</title></rect>
<rect x="304" y="454" width="9" height="9" rx="2" class="level-4"><title>2025-12-16: 37 contributions</title></rect>
<rect x="304" y="466" width="9" height="9" rx="2" class="level-3"><title>2025-12-17: 17 contributions</title></rect>
<rect x="304" y="478" width="9" height="9" rx="2" class="level-1"><title>2025-12-18: 3 contributions</title></rect>
<rect x="304" y="490" width="9" height="9" rx="2" class="level-1"><title>2025-12-19: 1 contributions</title></rect>
<rect x="304" y="502" width="9" height="9" rx="2" class="level-0"><title>2025-12-20: 0 contributions</title></rect>
<rect x="316" y="430" width="9" height="9" rx="2" class="level-0"><title>2025-12-21: 0 contributions</title></rect>
<rect x="316" y="442" width="9" height="9" rx="2" class="level-0"><title>2025-12-22: 0 contributions</title></rect>
<rect x="316" y="454" width="9" height="9" rx="2" class="level-0"><title>2025-12-23: 0 contributions</title></rect>
<rect x="316" y="466" width="9" height="9" rx="2" class="level-0"><title>2025-12-24: 0 contributions</title></rect>
<rect x="316" y="478" width="9" height="9" rx="2" class="level-3"><title>2025-12-25: 17 contributions</title></rect>
<rect x="316" y="490" width="9" height="9" rx="2" class="level-0"><title>2025-12-26: 0 contributions</title></rect>
<rect x="316" y="502" width="9" height="9" rx="2" class="level-0"><title>2025-12-27: 0 contributions</title></rect>
<rect x="328" y="430" width="9" height="9" rx="2" class="level-1"><title>2025-12-28: 2 contributions</title></rect>
<rect x="328" y="442" width="9" height="9" rx="2" class="level-0"><title>2025-12-29: 0 contributions</title></rect>
<rect x="328" y="454" width="9" height="9" rx="2" class="level-0"><title>2025-12-30: 0 contributions</title></rect>
<rect x="328" y="466" width="9" height="9" rx="2" class="level-0"><title>2025-12-31: 0 contributions</title></rect>
<rect x="328" y="478" width="9" height="9" rx="2" class="level-0"><title>2026-01-01: 0 contributions</title></rect>
<rect x="328" y="490" width="9" height="9" rx="2" class="level-0"><title>2026-01-02: 0 contributions</title></rect>
<rect x="328" y="502" width="9" height="9" rx="2" class="level-0"><title>2026-01-03: 0 contributions</title></rect>
<rect x="340" y="430" width="9" height="9" rx="2" class="level-1"><title>2026-01-04: 3 contributions</title></rect>
<rect x="340" y="442" width="9" height="9" rx="2" class="level-2"><title>2026-01-05: 7 contributions</title></rect>
<rect x="340" y="454" width="9" height="9" rx="2" class="level-0"><title>2026-01-06: 0 contributions</title></rect>
<rect x="340" y="466" width="9" height="9" rx="2" class="level-3"><title>2026-01-07: 22 contributions</title></rect>
<rect x="340" y="478" width="9" height="9" rx="2" class="level-0"><title>2026-01-08: 0 contributions</title></rect>
<rect x="340" y="490" width="9" height="9" rx="2" class="level-0"><title>2026-01-09: 0 contributions</title></rect>
<rect x="340" y="502" width="9" height="9" rx="2" class="level-0"><title>2026-01-10: 0 contributions</title></rect>
<rect x="352" y="430" width="9" height="9" rx="2" class="level-1"><title>2026-01-11: 3 contributions</title></rect>
<rect x="352" y="442" width="9" height="9" rx="2" class="level-1"><title>2026-01-12: 1 contributions</title></rect>
<rect x="352" y="454" width="9" height="9" rx="2" class="level-0"><title>2026-01-13: 0 contributions</title></rect>
<rect x="352" y="466" width="9" height="9" rx="2" class="level-0"><title>2026-01-14: 0 contributions</title></rect>
<rect x="352" y="478" width="9" height="9" rx="2" class="level-0"><title>2026-01-15: 0 contributions</title></rect>
<rect x="352" y="490" width="9" height="9" rx="2" class="level-2"><title>2026-01-16: 5 contributions</title></rect>
<rect x="352" y="502" width="9" height="9" rx="2" class="level-0"><title>2026-01-17: 0 contributions</title></rect>
<rect x="364" y="430" width="9" height="9" rx="2" class="level-0"><title>2026-01-18: 0 contributions</title></rect>
<rect x="364" y="442" width="9" height="9" rx="2" class="level-0"><title>2026-01-19: 0 contributions</title></rect>
<rect x="364" y="454" width="9" height="9" rx="2" class="level-0"><title>2026-01-20: 0 contributions</title></rect>
<rect x="364" y="466" width="9" height="9" rx="2" class="level-0"><title>2026-01-21: 0 contributions</title></rect>
<rect x="364" y="478" width="9" height="9" rx="2" class="level-0"><title>2026-01-22: 0 contributions</title></rect>
<rect x="364" y="490" width="9" height="9" rx="2" class="level-2"><title>2026-01-23: 9 contributions</title></rect>
<rect x="364" y="502" width="9" height="9" rx="2" class="level-0"><title>2026-01-24: 0 contributions</title></rect>
<rect x="376" y="430" width="9" height="9" rx="2" class="level-0"><title>2026-01-25: 0 contributions</title></rect>
<rect x="376" y="442" width="9" height="9" rx="2" class="level-0"><title>2026-01-26: 0 contributions</title></rect>
<rect x="376" y="454" width="9" height="9" rx="2" class="level-0"><title>2026-01-27: 0 contributions</title></rect>
<rect x="376" y="466" width="9" height="9" rx="2" class="level-0"><title>2026-01-28: 0 contributions</title></rect>
<rect x="376" y="478" width="9" height="9" rx="2" class="level-0"><title>2026-01-29: 0 contributions</title></rect>
<rect x="376" y="490" width="9" height="9" rx="2" class="level-0"><title>2026-01-30: 0 contributions</title></rect>
<rect x="376" y="502" width="9" height="9" rx="2" class="level-0"><title>2026-01-31: 0 contributions</title></rect>
<rect x="388" y="430" width="9" height="9" rx="2" class="level-1"><title>2026-02-01: 1 contributions</title></rect>
<rect x="388" y="442" width="9" height="9" rx="2" class="level-1"><title>2026-02-02: 1 contributions</title></rect>
<rect x="388" y="454" width="9" height="9" rx="2" class="level-0"><title>2026-02-03: 0 contributions</title></rect>
<rect x="388" y="466" width="9" height="9" rx="2" class="level-0"><title>2026-02-04: 0 contributions</title></rect>
<rect x="388" y="478" width="9" height="9" rx="2" class="level-0"><title>2026-02-05: 0 contributions</title></rect>
<rect x="388" y="490" width="9" height="9" rx="2" class="level-0"><title>2026-02-06: 0 contributions</title></rect>
<rect x="388" y="502" width="9" height="9" rx="2" class="level-2"><title>2026-02-07: 5 contributions</title></rect>
<rect x="400" y="430" width="9" height="9" rx="2" class="level-0"><title>2026-02-08: 0 contributions</title></rect>
<rect x="400" y="442" width="9" height="9" rx="2" class="level-0"><title>2026-02-09: 0 contributions</title></rect>
<rect x="400" y="454" width="9" height="9" rx="2" class="level-1"><title>2026-02-10: 3 contributions</title></rect>
<rect x="400" y="466" width="9" height="9" rx="2" class="level-0"><title>2026-02-11: 0 contributions</title></rect>
<rect x="400" y="478" width="9" height="9" rx="2" class="level-1"><title>2026-02-12: 1 contributions</title></rect>
<rect x="400" y="490" width="9" height="9" rx="2" class="level-2"><title>2026-02-13: 8 contributions</title></rect>
<rect x="400" y="502" width="9" height="9" rx="2" class="level-0"><title>2026-02-14: 0 contributions</title></rect>
<rect x="412" y="430" width="9" height="9" rx="2" class="level-1"><title>2026-02-15: 1 contributions</title></rect>
<rect x="412" y="442" width="9" height="9" rx="2" class="level-0"><title>2026-02-16: 0 contributions</title></rect>
<rect x="412" y="454" width="9" height="9" rx="2" class="level-0"><title>2026-02-17: 0 contributions</title></rect>
<rect x="412" y="466" width="9" height="9" rx="2" class="level-0"><title>2026-02-18: 0 contributions</title></rect>
<rect x="412" y="478" width="9" height="9" rx="2" class="level-0"><title>2026-02-19: 0 contributions</title></rect>
<rect x="412" y="490" width="9" height="9" rx="2" class="level-1"><title>2026-02-20: 1 contributions</title></rect>
<rect x="412" y="502" width="9" height="9" rx="2" class="level-0"><title>2026-02-21: 0 contributions</title></rect>
<rect x="424" y="430" width="9" height="9" rx="2" class="level-1"><title>2026-02-22: 1 contributions</title></rect>
<rect x="424" y="442" width="9" height="9" rx="2" class="level-0"><title>2026-02-23: 0 contributions</title></rect>
<rect x="424" y="454" width="9" height="9" rx="2" class="level-0"><title>2026-02-24: 0 contributions</title></rect>
<rect x="424" y="466" width="9" height="9" rx="2" class="level-0"><title>2026-02-25: 0 contributions</title></rect>
<rect x="424" y="478" width="9" height="9" rx="2" class="level-1"><title>2026-02-26: 1 contributions</title></rect>
<rect x="424" y="490" width="9" height="9" rx="2" class="level-0"><title>2026-02-27: 0 contributions</title></rect>
<rect x="424" y="502" width="9" height="9" rx="2" class="level-0"><title>2026-02-28: 0 contributions</title></rect>
<rect x="436" y="430" width="9" height="9" rx="2" class="level-0"><title>2026-03-01: 0 contributions</title></rect>
<rect x="436" y="442" width="9" height="9" rx="2" class="level-0"><title>2026-03-02: 0 contributions</title></rect>
<rect x="436" y="454" width="9" height="9" rx="2" class="level-0"><title>2026-03-03: 0 contributions</title></rect>
<rect x="436" y="466" width="9" height="9" rx="2" class="level-1"><title>2026-03-04: 3 contributions</title></rect>
<rect x="436" y="478" width="9" height="9" rx="2" class="level-0"><title>2026-03-05: 0 contributions</title></rect>
<rect x="436" y="490" width="9" height="9" rx="2" class="level-0"><title>2026-03-06: 0 contributions</title></rect>
<rect x="436" y="502" width="9" height="9" rx="2" class="level-0"><title>2026-03-07: 0 contributions</title></rect>
<rect x="448" y="430" width="9" height="9" rx="2" class="level-0"><title>2026-03-08: 0 contributions</title></rect>
<rect x="448" y="442" width="9" height="9" rx="2" class="level-0"><title>2026-03-09: 0 contributions</title></rect>
<rect x="448" y="454" width="9" height="9" rx="2" class="level-0"><title>2026-03-10: 0 contributions</title></rect>
<rect x="448" y="466" width="9" height="9" rx="2" class="level-1"><title>2026-03-11: 3 contributions</title></rect>
<rect x="448" y="478" width="9" height="9" rx="2" class="level-1"><title>2026-03-12: 1 contributions</title></rect>
<rect x="448" y="490" width="9" height="9" rx="2" class="level-0"><title>2026-03-13: 0 contributions</title></rect>
<rect x="448" y="502" width="9" height="9" rx="2" class="level-0"><title>2026-03-14: 0 contributions</title></rect>
<rect x="460" y="430" width="9" height="9" rx="2" class="level-0"><title>2026-03-15: 0 contributions</title></rect>
<rect x="460" y="442" width="9" height="9" rx="2" class="level-1"><title>2026-03-16: 3 contributions</title></rect>
<rect x="460" y="454" width="9" height="9" rx="2" class="level-2"><title>2026-03-17: 11 contributions</title></rect>
<rect x="460" y="466" width="9" height="9" rx="2" class="level-0"><title>2026-03-18: 0 contributions</title></rect>
<rect x="460" y="478" width="9" height="9" rx="2" class="level-0"><title>2026-03-19: 0 contributions</title></rect>
<rect x="460" y="490" width="9" height="9" rx="2" class="level-1"><title>2026-03-20: 1 contributions</title></rect>
<rect x="460" y="502" width="9" height="9" rx="2" class="level-2"><title>2026-03-21: 9 contributions</title></rect>
<rect x="472" y="430" width="9" height="9" rx="2" class="level-1"><title>2026-03-22: 4 contributions</title></rect>
<rect x="472" y="442" width="9" height="9" rx="2" class="level-1"><title>2026-03-23: 1 contributions</title></rect>
<rect x="472" y="454" width="9" height="9" rx="2" class="level-1"><title>2026-03-24: 4 contributions</title></rect>
<rect x="472" y="466" width="9" height="9" rx="2" class="level-2"><title>2026-03-25: 6 contributions</title></rect>
<rect x="472" y="478" width="9" height="9" rx="2" class="level-0"><title>2026-03-26: 0 contributions</title></rect>
<rect x="472" y="490" width="9" height="9" rx="2" class="level-0"><title>2026-03-27: 0 contributions</title></rect>
<rect x="472" y="502" width="9" height="9" rx="2" class="level-0"><title>2026-03-28: 0 contributions</title></rect>
<rect x="484" y="430" width="9" height="9" rx="2" class="level-0"><title>2026-03-29: 0 contributions</title></rect>
<rect x="484" y="442" width="9" height="9" rx="2" class="level-0"><title>2026-03-30: 0 contributions</title></rect>
<rect x="484" y="454" width="9" height="9" rx="2" class="level-1"><title>2026-03-31: 1 contributions</title></rect>
<rect x="484" y="466" width="9" height="9" rx="2" class="level-0"><title>2026-04-01: 0 contributions</title></rect>
<rect x="484" y="478" width="9" height="9" rx="2" class="level-0"><title>2026-04-02: 0 contributions</title></rect>
<rect x="484" y="490" width="9" height="9" rx="2" class="level-0"><title>2026-04-03: 0 contributions</title></rect>
<rect x="484" y="502" width="9" height="9" rx="2" class="level-0"><title>2026-04-04: 0 contributions</title></rect>
<rect x="496" y="430" width="9" height="9" rx="2" class="level-2"><title>2026-04-05: 5 contributions</title></rect>
<rect x="496" y="442" width="9" height="9" rx="2" class="level-0"><title>2026-04-06: 0 contributions</title></rect>
<rect x="496" y="454" width="9" height="9" rx="2" class="level-1"><title>2026-04-07: 3 contributions</title></rect>
<rect x="496" y="466" width="9" height="9" rx="2" class="level-2"><title>2026-04-08: 5 contributions</title></rect>
<rect x="496" y="478" width="9" height="9" rx="2" class="level-0"><title>2026-04-09: 0 contributions</title></rect>
<rect x="496" y="490" width="9" height="9" rx="2" class="level-1"><title>2026-04-10: 4 contributions</title></rect>
<rect x="496" y="502" width="9" height="9" rx="2" class="level-0"><title>2026-04-11: 0 contributions</title></rect>
<rect x="508" y="430" width="9" height="9" rx="2" class="level-1"><title>2026-04-12: 1 contributions</title></rect>
<rect x="508" y="442" width="9" height="9" rx="2" class="level-0"><title>2026-04-13: 0 contributions</title></rect>
<rect x="508" y="454" width="9" height="9" rx="2" class="level-0"><title>2026-04-14: 0 contributions</title></rect>
<rect x="508" y="466" width="9" height="9" rx="2" class="level-0"><title>2026-04-15: 0 contributions</title></rect>
<rect x="508" y="478" width="9" height="9" rx="2" class="level-0"><title>2026-04-16: 0 contributions</title></rect>
<rect x="508" y="490" width="9" height="9" rx="2" class="level-0"><title>2026-04-17: 0 contributions</title></rect>
<rect x="508" y="502" width="9" height="9" rx="2" class="level-0"><title>2026-04-18: 0 contributions</title></rect>
<rect x="520" y="430" width="9" height="9" rx="2" class="level-0"><title>2026-04-19: 0 contributions</title></rect>
<rect x="520" y="442" width="9" height="9" rx="2" class="level-0"><title>2026-04-20: 0 contributions</title></rect>
<rect x="520" y="454" width="9" height="9" rx="2" class="level-0"><title>2026-04-21: 0 contributions</title></rect>
<rect x="520" y="466" width="9" height="9" rx="2" class="level-1"><title>2026-04-22: 2 contributions</title></rect>
<rect x="520" y="478" width="9" height="9" rx="2" class="level-4"><title>2026-04-23: 33 contributions</title></rect>
<rect x="520" y="490" width="9" height="9" rx="2" class="level-1"><title>2026-04-24: 1 contributions</title></rect>
<rect x="520" y="502" width="9" height="9" rx="2" class="level-0"><title>2026-04-25: 0 contributions</title></rect>
<rect x="532" y="430" width="9" height="9" rx="2" class="level-0"><title>2026-04-26: 0 contributions</title></rect>
<rect x="532" y="442" width="9" height="9" rx="2" class="level-0"><title>2026-04-27: 0 contributions</title></rect>
<rect x="532" y="454" width="9" height="9" rx="2" class="level-1"><title>2026-04-28: 2 contributions</title></rect>
<rect x="532" y="466" width="9" height="9" rx="2" class="level-1"><title>2026-04-29: 3 contributions</title></rect>
<rect x="532" y="478" width="9" height="9" rx="2" class="level-1"><title>2026-04-30: 4 contributions</title></rect>
<rect x="532" y="490" width="9" height="9" rx="2" class="level-1"><title>2026-05-01: 4 contributions</title></rect>
<rect x="532" y="502" width="9" height="9" rx="2" class="level-0"><title>2026-05-02: 0 contributions</title></rect>
<rect x="544" y="430" width="9" height="9" rx="2" class="level-0"><title>2026-05-03: 0 contributions</title></rect>
<rect x="544" y="442" width="9" height="9" rx="2" class="level-2"><title>2026-05-04: 6 contributions</title></rect>
<rect x="544" y="454" width="9" height="9" rx="2" class="level-2"><title>2026-05-05: 12 contributions</title></rect>
<rect x="544" y="466" width="9" height="9" rx="2" class="level-1"><title>2026-05-06: 3 contributions</title></rect>
<rect x="544" y="478" width="9" height="9" rx="2" class="level-1"><title>2026-05-07: 3 contributions</title></rect>
<rect x="544" y="490" width="9" height="9" rx="2" class="level-0"><title>2026-05-08: 0 contributions</title></rect>
<rect x="544" y="502" width="9" height="9" rx="2" class="level-0"><title>2026-05-09: 0 contributions</title></rect>
<rect x="556" y="430" width="9" height="9" rx="2" class="level-1"><title>2026-05-10: 3 contributions</title></rect>
<rect x="556" y="442" width="9" height="9" rx="2" class="level-1"><title>2026-05-11: 4 contributions</title></rect>
<rect x="556" y="454" width="9" height="9" rx="2" class="level-0"><title>2026-05-12: 0 contributions</title></rect>
<rect x="556" y="466" width="9" height="9" rx="2" class="level-3"><title>2026-05-13: 16 contributions</title></rect>
<rect x="556" y="478" width="9" height="9" rx="2" class="level-3"><title>2026-05-14: 15 contributions</title></rect>
<rect x="556" y="490" width="9" height="9" rx="2" class="level-0"><title>2026-05-15: 0 contributions</title></rect>
<rect x="556" y="502" width="9" height="9" rx="2" class="level-2"><title>2026-05-16: 5 contributions</title></rect>
<rect x="568" y="430" width="9" height="9" rx="2" class="level-1"><title>2026-05-17: 4 contributions</title></rect>
<rect x="568" y="442" width="9" height="9" rx="2" class="level-2"><title>2026-05-18: 14 contributions</title></rect>
<rect x="568" y="454" width="9" height="9" rx="2" class="level-1"><title>2026-05-19: 3 contributions</title></rect>
<rect x="568" y="466" width="9" height="9" rx="2" class="level-3"><title>2026-05-20: 20 contributions</title></rect>
<rect x="568" y="478" width="9" height="9" rx="2" class="level-1"><title>2026-05-21: 3 contributions</title></rect>
<rect x="568" y="490" width="9" height="9" rx="2" class="level-1"><title>2026-05-22: 3 contributions</title></rect>
<rect x="568" y="502" width="9" height="9" rx="2" class="level-0"><title>2026-05-23: 0 contributions</title></rect>
<rect x="580" y="430" width="9" height="9" rx="2" class="level-2"><title>2026-05-24: 5 contributions</title></rect>
<rect x="580" y="442" width="9" height="9" rx="2" class="level-1"><title>2026-05-25: 2 contributions</title></rect>
<rect x="580" y="454" width="9" height="9" rx="2" class="level-1"><title>2026-05-26: 2 contributions</title></rect>
<rect x="580" y="466" width="9" height="9" rx="2" class="level-1"><title>2026-05-27: 1 contributions</title></rect>
<rect x="580" y="478" width="9" height="9" rx="2" class="level-0"><title>2026-05-28: 0 contributions</title></rect>
<rect x="580" y="490" width="9" height="9" rx="2" class="level-0"><title>2026-05-29: 0 contributions</title></rect>
<rect x="580" y="502" width="9" height="9" rx="2" class="level-0"><title>2026-05-30: 0 contributions</title></rect>
<rect x="592" y="430" width="9" height="9" rx="2" class="level-1"><title>2026-05-31: 2 contributions</title></rect>
<rect x="592" y="442" width="9" height="9" rx="2" class="level-2"><title>2026-06-01: 8 contributions</title></rect>
<rect x="592" y="454" width="9" height="9" rx="2" class="level-0"><title>2026-06-02: 0 contributions</title></rect>
<rect x="592" y="466" width="9" height="9" rx="2" class="level-1"><title>2026-06-03: 3 contributions</title></rect>
<rect x="592" y="478" width="9" height="9" rx="2" class="level-1"><title>2026-06-04: 1 contributions</title></rect>
<rect x="592" y="490" width="9" height="9" rx="2" class="level-1"><title>2026-06-05: 4 contributions</title></rect>
<rect x="592" y="502" width="9" height="9" rx="2" class="level-2"><title>2026-06-06: 13 contributions</title></rect>
<rect x="604" y="430" width="9" height="9" rx="2" class="level-2"><title>2026-06-07: 5 contributions</title></rect>
<rect x="604" y="442" width="9" height="9" rx="2" class="level-0"><title>2026-06-08: 0 contributions</title></rect>
<rect x="604" y="454" width="9" height="9" rx="2" class="level-2"><title>2026-06-09: 10 contributions</title></rect>
<rect x="604" y="466" width="9" height="9" rx="2" class="level-1"><title>2026-06-10: 4 contributions</title></rect>
<rect x="604" y="478" width="9" height="9" rx="2" class="level-1"><title>2026-06-11: 3 contributions</title></rect>
<rect x="604" y="490" width="9" height="9" rx="2" class="level-2"><title>2026-06-12: 5 contributions</title></rect>
<rect x="604" y="502" width="9" height="9" rx="2" class="level-1"><title>2026-06-13: 3 contributions</title></rect>
<rect x="616" y="430" width="9" height="9" rx="2" class="level-0"><title>2026-06-14: 0 contributions</title></rect>
<rect x="616" y="442" width="9" height="9" rx="2" class="level-0"><title>2026-06-15: 0 contributions</title></rect>
<rect x="616" y="454" width="9" height="9" rx="2" class="level-4"><title>2026-06-16: 33 contributions</title></rect>
<rect x="616" y="466" width="9" height="9" rx="2" class="level-2"><title>2026-06-17: 5 contributions</title></rect>
<rect x="616" y="478" width="9" height="9" rx="2" class="level-3"><title>2026-06-18: 23 contributions</title></rect>
<rect x="616" y="490" width="9" height="9" rx="2" class="level-4"><title>2026-06-19: 82 contributions</title></rect>
<rect x="616" y="502" width="9" height="9" rx="2" class="level-2"><title>2026-06-20: 10 contributions</title></rect>
<rect x="628" y="430" width="9" height="9" rx="2" class="level-3"><title>2026-06-21: 19 contributions</title></rect>
<rect x="628" y="442" width="9" height="9" rx="2" class="level-4"><title>2026-06-22: 47 contributions</title></rect>
<rect x="628" y="454" width="9" height="9" rx="2" class="level-2"><title>2026-06-23: 8 contributions</title></rect>
<rect x="628" y="466" width="9" height="9" rx="2" class="level-3"><title>2026-06-24: 27 contributions</title></rect>
<rect x="628" y="478" width="9" height="9" rx="2" class="level-3"><title>2026-06-25: 17 contributions</title></rect>
<rect x="628" y="490" width="9" height="9" rx="2" class="level-4"><title>2026-06-26: 79 contributions</title></rect>
<rect x="628" y="502" width="9" height="9" rx="2" class="level-4"><title>2026-06-27: 44 contributions</title></rect>
<rect x="640" y="430" width="9" height="9" rx="2" class="level-4"><title>2026-06-28: 47 contributions</title></rect>
<rect x="640" y="442" width="9" height="9" rx="2" class="level-4"><title>2026-06-29: 56 contributions</title></rect>
<rect x="640" y="454" width="9" height="9" rx="2" class="level-2"><title>2026-06-30: 9 contributions</title></rect>
<rect x="640" y="466" width="9" height="9" rx="2" class="level-3"><title>2026-07-01: 21 contributions</title></rect>
<rect x="640" y="478" width="9" height="9" rx="2" class="level-4"><title>2026-07-02: 30 contributions</title></rect>
<rect x="640" y="490" width="9" height="9" rx="2" class="level-2"><title>2026-07-03: 14 contributions</title></rect>
<rect x="640" y="502" width="9" height="9" rx="2" class="level-2"><title>2026-07-04: 13 contributions</title></rect>
<rect x="652" y="430" width="9" height="9" rx="2" class="level-2"><title>2026-07-05: 13 contributions</title></rect>
<rect x="652" y="442" width="9" height="9" rx="2" class="level-3"><title>2026-07-06: 25 contributions</title></rect>
<rect x="652" y="454" width="9" height="9" rx="2" class="level-3"><title>2026-07-07: 27 contributions</title></rect>
<rect x="652" y="466" width="9" height="9" rx="2" class="level-2"><title>2026-07-08: 14 contributions</title></rect>
<rect x="652" y="478" width="9" height="9" rx="2" class="level-2"><title>2026-07-09: 12 contributions</title></rect>
<rect x="652" y="490" width="9" height="9" rx="2" class="level-4"><title>2026-07-10: 58 contributions</title></rect>
<rect x="652" y="502" width="9" height="9" rx="2" class="level-4"><title>2026-07-11: 46 contributions</title></rect>
<rect x="664" y="430" width="9" height="9" rx="2" class="level-4"><title>2026-07-12: 76 contributions</title></rect>
<rect x="664" y="442" width="9" height="9" rx="2" class="level-1"><title>2026-07-13: 3 contributions</title></rect>
<rect x="664" y="454" width="9" height="9" rx="2" class="level-0"><title>2026-07-14: 0 contributions</title></rect>
<rect x="664" y="466" width="9" height="9" rx="2" class="level-1"><title>2026-07-15: 1 contributions</title></rect>
<rect x="664" y="478" width="9" height="9" rx="2" class="level-4"><title>2026-07-16: 43 contributions</title></rect>
<rect x="664" y="490" width="9" height="9" rx="2" class="level-1"><title>2026-07-17: 3 contributions</title></rect>
<rect x="664" y="502" width="9" height="9" rx="2" class="level-1 latest"><title>2026-07-18: 3 contributions</title></rect>
  <rect x="40" y="426" width="9" height="92" rx="4" class="signal scan" opacity="0" />
  <g transform="translate(40 545)"><text x="0" y="0" class="muted mono" font-size="11">LESS</text><rect x="42" y="-10" width="12" height="12" rx="3" class="level-0" /><rect x="60" y="-10" width="12" height="12" rx="3" class="level-1" /><rect x="78" y="-10" width="12" height="12" rx="3" class="level-2" /><rect x="96" y="-10" width="12" height="12" rx="3" class="level-3" /><rect x="114" y="-10" width="12" height="12" rx="3" class="level-4" /><text x="134" y="0" class="muted mono" font-size="11">MORE</text></g>
  <text x="40" y="586" class="muted mono" font-size="11">GITHUB ACTIVITY · PUBLIC + PRIVATE-COUNT SIGNALS</text>
  <text x="40" y="611" class="muted mono" font-size="11">REFRESHED 18 JUL 2026</text>
  <rect x="1" y="1" width="718" height="638" rx="29" fill="none" class="faint" />
</svg>
