<svg xmlns="http://www.w3.org/2000/svg" width="720" height="1460" viewBox="0 0 720 1460" role="img" aria-labelledby="title desc">
  <title id="title">Operating range, experience, education, and community</title>
  <desc id="desc">Mobile career ledger for Shivam Kumar covering platform, reliability, data and AI, delivery security, four professional roles, education, HackMIT mentorship, and NSS service.</desc>
  <defs>
    <pattern id="grid" width="28" height="28" patternUnits="userSpaceOnUse"><path d="M28 0H0V28" fill="none" class="grid-line"/></pattern><clipPath id="frame"><rect width="720" height="1460" rx="30"/></clipPath><filter id="glow" x="-200%" y="-200%" width="500%" height="500%"><feGaussianBlur stdDeviation="5" result="b"/><feMerge><feMergeNode in="b"/><feMergeNode in="SourceGraphic"/></feMerge></filter>
    <style>
      text{font-family:Arial,Helvetica,sans-serif}.mono{font-family:"SFMono-Regular",Consolas,"Liberation Mono",monospace}.bg{fill:#080A0C}.panel{fill:#101316}.panel2{fill:#15191D}.ink{fill:#F3F0E8}.muted{fill:#89939D}.faint{stroke:#30363C}.grid-line{stroke:#1A2025}.signal{fill:#B8F34A}.signal-stroke{stroke:#B8F34A}.safety{fill:#FF6B35}.pulse{animation:pulse 2.6s ease-out infinite;transform-origin:660px 38px}@keyframes pulse{0%{transform:scale(.6);opacity:.75}78%,100%{transform:scale(2.7);opacity:0}}
      @media(prefers-color-scheme:light){.bg{fill:#F3F0E8}.panel{fill:#E8E3D8}.panel2{fill:#DED8CA}.ink{fill:#111315}.muted{fill:#5F6870}.faint{stroke:#C8C0B1}.grid-line{stroke:#DDD7CB}.signal{fill:#456600}.signal-stroke{stroke:#456600}.safety{fill:#C7461D}}
      @media(prefers-reduced-motion:reduce){.motion{display:none!important}.pulse{animation:none!important}}
    </style>
  </defs>
  <rect width="720" height="1460" rx="30" class="bg"/><g clip-path="url(#frame)"><rect width="720" height="1460" fill="url(#grid)" opacity=".42"/><circle cx="640" cy="40" r="150" fill="#B8F34A" opacity=".045"/></g>
  <text x="40" y="42" class="muted mono" font-size="14" font-weight="700" letter-spacing="1.6">FIELD MANUAL 05 / OPERATING RANGE</text><circle cx="660" cy="38" r="5" class="signal"/><circle cx="660" cy="38" r="5" fill="none" class="signal-stroke pulse"/><line x1="40" y1="64" x2="680" y2="64" class="faint"/>
  <g transform="translate(40 84)"><rect width="310" height="180" rx="18" class="panel faint"/><text x="20" y="32" class="signal mono" font-size="14" font-weight="700">01 / PLATFORM</text><text x="20" y="74" class="ink" font-size="24" font-weight="700">Dependable systems</text><text x="20" y="110" class="muted" font-size="15">Kubernetes · Docker</text><text x="20" y="136" class="muted" font-size="15">Terraform · Ansible</text><text x="20" y="160" class="muted" font-size="15">GCP · AWS · OCI · on-prem</text></g>
  <g transform="translate(370 84)"><rect width="310" height="180" rx="18" class="panel faint"/><text x="20" y="32" class="signal mono" font-size="14" font-weight="700">02 / RELIABILITY</text><text x="20" y="74" class="ink" font-size="24" font-weight="700">Observable reality</text><text x="20" y="110" class="muted" font-size="15">Zabbix · SigNoz · PagerDuty</text><text x="20" y="136" class="muted" font-size="15">eBPF · SLI/SLO · incidents</text><text x="20" y="160" class="muted" font-size="15">Vault-backed secrets</text></g>
  <g transform="translate(40 282)"><rect width="310" height="180" rx="18" class="panel faint"/><text x="20" y="32" class="signal mono" font-size="14" font-weight="700">03 / DATA + AI</text><text x="20" y="74" class="ink" font-size="24" font-weight="700">Intelligent systems</text><text x="20" y="110" class="muted" font-size="15">PostgreSQL · Redis · Cassandra</text><text x="20" y="136" class="muted" font-size="15">LLMOps · RAG · GRPO</text><text x="20" y="160" class="muted" font-size="15">distributed inference · GPUs</text></g>
  <g transform="translate(370 282)"><rect width="310" height="180" rx="18" class="panel faint"/><text x="20" y="32" class="safety mono" font-size="14" font-weight="700">04 / SECURITY</text><text x="20" y="74" class="ink" font-size="24" font-weight="700">Secure delivery</text><text x="20" y="110" class="muted" font-size="15">GitHub Actions · CodePipeline</text><text x="20" y="136" class="muted" font-size="15">Kyverno · SPIFFE · OpenFGA</text><text x="20" y="160" class="muted" font-size="15">policy and supply-chain security</text></g>
  <text x="40" y="510" class="ink mono" font-size="16" font-weight="700">EXPERIENCE / 2022 → NOW</text><line x1="40" y1="528" x2="680" y2="528" class="faint"/>
  <g transform="translate(40 550)"><line x1="20" y1="28" x2="20" y2="444" class="faint" stroke-width="2"/><g class="motion"><circle cx="20" r="6" class="signal" filter="url(#glow)"><animate attributeName="cy" values="28;444;28" keyTimes="0;.88;1" dur="9s" repeatCount="indefinite"/></circle></g>
    <g transform="translate(0 0)"><circle cx="20" cy="28" r="8" class="signal"/><text x="50" y="18" class="signal mono" font-size="14" font-weight="700">JUN 2025 — NOW</text><text x="50" y="52" class="ink" font-size="24" font-weight="700">DevOps Engineer II · Kimbal</text><text x="50" y="82" class="muted" font-size="15">Multi-cloud · eBPF · observability · MLOps</text><text x="50" y="108" class="muted" font-size="15">secure platform operations</text></g>
    <g transform="translate(0 118)"><circle cx="20" cy="28" r="8" class="panel2 faint"/><text x="50" y="18" class="muted mono" font-size="14" font-weight="700">JUN 2024 — JUN 2025</text><text x="50" y="52" class="ink" font-size="24" font-weight="700">DevOps Engineer · Kimbal</text><text x="50" y="82" class="muted" font-size="15">Kubernetes · automation · reliability · delivery</text></g>
    <g transform="translate(0 230)"><circle cx="20" cy="28" r="8" class="panel2 faint"/><text x="50" y="18" class="muted mono" font-size="14" font-weight="700">JAN 2024 — JUN 2024</text><text x="50" y="52" class="ink" font-size="24" font-weight="700">DevOps Intern · Kimbal</text><text x="50" y="82" class="muted" font-size="15">Monitoring · databases · automation · support</text></g>
    <g transform="translate(0 342)"><circle cx="20" cy="28" r="8" class="panel2 faint"/><text x="50" y="18" class="muted mono" font-size="14" font-weight="700">JAN 2022 — MAR 2023</text><text x="50" y="52" class="ink" font-size="23" font-weight="700">Gemini Ambassador · Gemini Solutions</text><text x="50" y="82" class="muted" font-size="15">Community · technology advocacy · industry exposure</text></g>
  </g>
  <text x="40" y="1042" class="ink mono" font-size="16" font-weight="700">EDUCATION + COMMUNITY</text><line x1="40" y1="1060" x2="680" y2="1060" class="faint"/>
  <g transform="translate(40 1080)"><rect width="310" height="142" rx="18" class="panel faint"/><text x="18" y="30" class="signal mono" font-size="13" font-weight="700">2025 — 2027</text><text x="18" y="68" class="ink" font-size="21" font-weight="700">M.Tech · AI &amp; ML</text><text x="18" y="100" class="muted" font-size="16">BITS Pilani</text></g>
  <g transform="translate(370 1080)"><rect width="310" height="142" rx="18" class="panel faint"/><text x="18" y="30" class="muted mono" font-size="13" font-weight="700">2020 — 2024 · 8.17/10</text><text x="18" y="68" class="ink" font-size="21" font-weight="700">B.E. · Computer Science</text><text x="18" y="100" class="muted" font-size="16">Panjab University</text></g>
  <g transform="translate(40 1240)"><rect width="310" height="142" rx="18" class="panel faint"/><text x="18" y="30" class="safety mono" font-size="13" font-weight="700">SEP 2024</text><text x="18" y="68" class="ink" font-size="21" font-weight="700">Mentor · HackMIT '24</text><text x="18" y="100" class="muted" font-size="16">Massachusetts Institute</text><text x="18" y="124" class="muted" font-size="16">of Technology</text></g>
  <g transform="translate(370 1240)"><rect width="310" height="142" rx="18" class="panel faint"/><text x="18" y="30" class="muted mono" font-size="13" font-weight="700">2021 — 2024</text><text x="18" y="68" class="ink" font-size="21" font-weight="700">National Service Scheme</text><text x="18" y="100" class="muted" font-size="16">Member · community service</text></g>
  <text x="40" y="1428" class="muted mono" font-size="12">WASM · VLLM / LLM-D · AGENTIC AI SECURITY</text><rect x="1" y="1" width="718" height="1458" rx="29" fill="none" class="faint"/>
</svg>
